/* XPM */
static char *_a5a12c5838e4538a4004f590157ec2aFwzGSzDuYwfqcqDH[] = {
/* columns rows colors chars-per-pixel */
"32 32 194 2 ",
"   c None",
".  c #020000",
"X  c #0C0000",
"o  c #130100",
"O  c #1B0000",
"+  c #130900",
"@  c #180D00",
"#  c #270600",
"$  c #261900",
"%  c #3F1E02",
"&  c #2B2200",
"*  c #332200",
"=  c #441E03",
"-  c #422200",
";  c #592D00",
":  c #4D3402",
">  c #4C3B00",
",  c #5B3200",
"<  c #5B3806",
"1  c #683D05",
"2  c #743D08",
"3  c #544000",
"4  c #5C4100",
"5  c #5B4C03",
"6  c #574711",
"7  c #6C4900",
"8  c #7E4A05",
"9  c #745B0E",
"0  c #79471F",
"q  c #774115",
"w  c #863F00",
"e  c #8A4908",
"r  c #834002",
"t  c #824B14",
"y  c #8C5811",
"u  c #995A1D",
"i  c #965F1B",
"p  c #AB5400",
"a  c #AC5B02",
"s  c #A55509",
"d  c #B25500",
"f  c #B25C00",
"g  c #A55A16",
"h  c #886012",
"j  c #846B1E",
"k  c #8A6C1E",
"l  c #8D6915",
"z  c #96671D",
"x  c #887419",
"c  c #AA6507",
"v  c #BA6302",
"b  c #BC7600",
"n  c #BA760B",
"m  c #855926",
"M  c #9A5C28",
"N  c #8A6723",
"B  c #927229",
"V  c #A87926",
"C  c #B87420",
"Z  c #BF7825",
"A  c #C86D00",
"S  c #C37300",
"D  c #CA7602",
"F  c #CB7C00",
"G  c #C07F08",
"H  c #D17C09",
"J  c #BB8B00",
"K  c #A38313",
"L  c #A98624",
"P  c #A48333",
"I  c #BA8738",
"U  c #BF8D3C",
"Y  c #BDAA3E",
"T  c #CF8500",
"R  c #CC800A",
"E  c #D18500",
"W  c #DA8C01",
"Q  c #D48B04",
"!  c #CF9100",
"~  c #D69500",
"^  c #DB9501",
"/  c #D39C00",
"(  c #DB9903",
")  c #CC8B15",
"_  c #E08E00",
"`  c #E29303",
"'  c #E29D06",
"]  c #E6960F",
"[  c #E29A0E",
"{  c #EC9D0D",
"}  c #E28F13",
"|  c #E69414",
" . c #EC9C11",
".. c #E7911C",
"X. c #F29E10",
"o. c #DFA000",
"O. c #DDAC01",
"+. c #DAAB0F",
"@. c #DEB204",
"#. c #E4A503",
"$. c #EAA500",
"%. c #E4AA04",
"&. c #ECAA03",
"*. c #E5A20A",
"=. c #EBA30B",
"-. c #E5AA09",
";. c #EDAD0A",
":. c #F2AC0B",
">. c #F0AE05",
",. c #EEB20C",
"<. c #E3B00D",
"1. c #F3B206",
"2. c #F7B40A",
"3. c #F3BC0C",
"4. c #FABE0C",
"5. c #EEA512",
"6. c #ECAB13",
"7. c #E7A719",
"8. c #F1A214",
"9. c #F6A719",
"0. c #EDB616",
"q. c #F4B713",
"w. c #F2BB13",
"e. c #FABA14",
"r. c #FBB51C",
"t. c #F4BC1C",
"y. c #FABC1C",
"u. c #F7B718",
"i. c #CF8C23",
"p. c #CE9D29",
"a. c #D8962B",
"s. c #C38834",
"d. c #CB9437",
"f. c #D09E3D",
"g. c #EB9621",
"h. c #DEA920",
"j. c #DAA12B",
"k. c #DCA723",
"l. c #DDB521",
"z. c #C8A83B",
"x. c #D6A539",
"c. c #E9A728",
"v. c #F2AE21",
"b. c #FDB525",
"n. c #F6BA22",
"m. c #FBBA23",
"M. c #FDB42B",
"N. c #E6AC3E",
"B. c #E5B23A",
"V. c #FBBC36",
"C. c #F8C10D",
"Z. c #FAC514",
"A. c #F7CC15",
"S. c #F9CB15",
"D. c #F6C71C",
"F. c #FDC41A",
"G. c #F2CC1A",
"H. c #FBCC1F",
"J. c #DBC12F",
"K. c #DCC333",
"L. c #FFCB27",
"P. c #FCC42A",
"I. c #F3C92B",
"U. c #FDCB29",
"Y. c #F4C527",
"T. c #FED020",
"R. c #FFDA2D",
"E. c #FED628",
"W. c #FFCA30",
"Q. c #F8C638",
"!. c #F8C436",
"~. c #FFD431",
"^. c #FEDA34",
"/. c #FFDA38",
"(. c #FFE42C",
"). c #FFEA33",
"_. c #FFE335",
"`. c #9C8A45",
"'. c #CBA947",
"]. c #FABC41",
"[. c #EEC445",
"{. c #E4C840",
"}. c #F2CA46",
"|. c #F2D542",
" X c #F3D941",
".X c #FFDE45",
"XX c #E8CA59",
"oX c #FFD552",
"OX c #FFE344",
"+X c #FDE54B",
"@X c #F7E346",
"#X c #FFE653",
"$X c #FCE75E",
"%X c #F3E075",
/* pixels */
"                                                                ",
"                                                                ",
"                  . . . X X o o X X o X . . .                   ",
"              . X X X & 5 5 j j 9 9 3 * $ @ X . .               ",
"            . . O 4 L XXK.+X@X@X X X^.J.{.K 7 # o X X           ",
"        . . X 6 P XX}.I.).(.).R.).).).E.G.I.{.V , O o X         ",
"        . X `.XX[.Q.Y.!./ / t.m.w.-.O.L.G.G.G.!.B.V O o .       ",
"      . X `.XX|.I.Y.P.W.n.( b b.b.*.-.O.G.A.G.D.7.N.; o X       ",
"      . > %X$XOXI.<.%.0./.D.~ ` | M.t.0./ 1.w.q.P.].s.; X       ",
"    . X x $X#X+XT.t.L.t.^.~.#.` p ..M.n.y.~ ~ #.~ V.i.y X       ",
"    . @ Y #X#X.Xm.:.L.,.;.e.,.5.A p } [ ^  .*.-.! V.) I o .     ",
"    . @ z.#X@X+.:.$.e.;.^ :.F.6.A p D S F W 5.{ n.V.) U X .     ",
"    . + '.l.^.@.#.$.e.$.$.&.,.-.*.T  .b._ D X. .v.c.n V o .     ",
"    . + L J ~.@.3.#.$.4.2.>.3.3.R.#.E b.r.F X. .oXR n 8 o .     ",
"    . + L k.J ~.H.3.3.F.2.1.Z.Z.Z.F.Q {  .r.=.M.c.n Z t o       ",
"    . + l x.c.+.w.R.Z.3.&.1.4.3.O.F.=.=.t.y.b.Q n C e 0 o       ",
"      . O z k.7.6.#.;.;.4.4.C.4.w.w.q.r.P.=.F H c r 0 = X       ",
"      . o < f.c ( 5.^ :.$.$.#.#.#.' ' ' T T H a w q = o X       ",
"        X o B x.b D W 9.8.8.8.X.] | | g.H p d s 2 = o .         ",
"          X + N d.a.b b b S D S D v f v p s g M - o .           ",
"            . X : N '.z.j.j.a.c f p a c i m = o X X             ",
"              . . X o : N l k z u u 2 1 - o X . .               ",
"                  . . X X X X X o o X X X . X                   ",
"                                                                ",
"                                                                ",
"                                                                ",
"                                                                ",
"                                                                ",
"                                                                ",
"                                                                ",
"                                                                ",
"                                                                "
};
