/* XPM */
static char *_908deafdca24188eea0d60f4916dbffla6G1ElNVLyN47Bo[] = {
/* columns rows colors chars-per-pixel */
"32 32 177 2 ",
"   c None",
".  c #010114",
"X  c #00011B",
"o  c #010323",
"O  c #01032C",
"+  c #07092B",
"@  c #040824",
"#  c #000332",
"$  c #040C32",
"%  c #00073D",
"&  c #000B3C",
"*  c #080B32",
"=  c #13173D",
"-  c #141435",
";  c #33313F",
":  c #000643",
">  c #00034E",
",  c #040B45",
"<  c #061146",
"1  c #131945",
"2  c #111F4D",
"3  c #000B58",
"4  c #121A57",
"5  c #19234E",
"6  c #1B235C",
"7  c #182354",
"8  c #20224D",
"9  c #272A5E",
"0  c #26325B",
"q  c #0A1761",
"w  c #00196F",
"e  c #081A6F",
"r  c #0D1B79",
"t  c #041D77",
"y  c #101774",
"u  c #1A2364",
"i  c #14246E",
"p  c #2D3660",
"a  c #26336B",
"s  c #2B3663",
"d  c #383E6E",
"f  c #36376D",
"g  c #212F71",
"h  c #252D7A",
"j  c #22337C",
"k  c #37406D",
"l  c #3B447D",
"z  c #394376",
"x  c #50506C",
"c  c #4C4D7F",
"v  c #4F507D",
"b  c #575773",
"n  c #51537C",
"m  c #51597D",
"M  c #5F627C",
"N  c #373C8E",
"B  c #2C3E95",
"V  c #3D4980",
"C  c #304699",
"Z  c #39459D",
"A  c #3C4694",
"S  c #2E46A8",
"D  c #2E47A4",
"F  c #3B45A6",
"G  c #3A4AA3",
"H  c #3645AA",
"J  c #384BB0",
"K  c #4E4F8F",
"L  c #4E508C",
"P  c #50508A",
"I  c #505B8C",
"U  c #4B5899",
"Y  c #515D93",
"T  c #5B5D97",
"R  c #5C6582",
"E  c #5C6491",
"W  c #616B8F",
"Q  c #616A94",
"!  c #636C9B",
"~  c #697098",
"^  c #697192",
"/  c #70769A",
"(  c #737994",
")  c #4A5AA4",
"_  c #4A59AB",
"`  c #505FA0",
"'  c #4B5DB7",
"]  c #5E6DAC",
"[  c #5E6CA0",
"{  c #5A65BC",
"}  c #5C69B2",
"|  c #616AA4",
" . c #6270A7",
".. c #7F7FA6",
"X. c #7879BA",
"o. c #7377B4",
"O. c #586AC3",
"+. c #566ACB",
"@. c #5B69CB",
"#. c #767ECB",
"$. c #7E86B8",
"%. c #7C81B6",
"&. c #7680C5",
"*. c #7A84C4",
"=. c #7A84CE",
"-. c #7582D4",
";. c #7A87D0",
":. c #7A87DC",
">. c #84879D",
",. c #929B9F",
"<. c #8187AB",
"1. c #8788B5",
"2. c #8289BD",
"3. c #8F9CBE",
"4. c #8D95B6",
"5. c #929ABC",
"6. c #989EB4",
"7. c #99A0B9",
"8. c #A0A0B9",
"9. c #8B95C3",
"0. c #8D9DC3",
"q. c #8C95CA",
"w. c #8C98CC",
"e. c #929AC6",
"r. c #9097CE",
"t. c #929BCC",
"y. c #989FC8",
"u. c #878FD8",
"i. c #8B8EDF",
"p. c #8C94D2",
"a. c #8997DD",
"s. c #949AD5",
"d. c #979BD9",
"f. c #9CA1C8",
"g. c #9EABD3",
"h. c #9EABDA",
"j. c #A6ACC1",
"k. c #A4ADDB",
"l. c #ACB4D8",
"z. c #B0B7D4",
"x. c #B3BCD6",
"c. c #878FEA",
"v. c #8092E7",
"b. c #8897E1",
"n. c #A4ACE3",
"m. c #A4AFEC",
"M. c #AAB1E1",
"N. c #B0B7EE",
"B. c #B6BFEA",
"V. c #B8BEEA",
"C. c #A5ACF3",
"Z. c #AAB2F3",
"A. c #BDC1EF",
"S. c #BEC9F3",
"D. c #C1C3CE",
"F. c #C3C9D5",
"G. c #CFCFDB",
"H. c #D0D0DE",
"J. c #C5CBE1",
"K. c #C9CCE4",
"L. c #C3CCF8",
"P. c #CCD4FF",
"I. c #CEDBFE",
"U. c #D3DDFF",
"Y. c #D2E1FF",
"T. c #DBE4FF",
"R. c #D9E1F3",
"E. c #EFEBF6",
"W. c #E0E7FF",
"Q. c #E3EBFF",
"!. c #EAEEFD",
"~. c #E5E7F2",
"^. c #F1EEF6",
"/. c #F1EFF9",
"(. c #EEF2F4",
"). c #ECF2FC",
"_. c #F3F1F8",
/* pixels */
"                                                                ",
"                                                                ",
"                                                                ",
"                                                                ",
"                                                                ",
"                            . . X X                             ",
"                            8 8.^ E 0 0 @                       ",
"                            . f.t.s.r.e./ @                     ",
"                        O # u u U.n.2.k.f.o                     ",
"                      O u A { i *.n.$.k.e.O                     ",
"                  O q G +.+.@.Z U I.l.I.E @ o                   ",
"                  4 G J +.+.{ } I U.Y.I.p Q s O                 ",
"                q B O.:.b.b.m.9.M !.).4.a ;.) g                 ",
"              O e +.O.i.m.P.L.5.D.^.D.R *.:.' j #               ",
"              : F @.c.u.n.T.Y.F.(.(.,.x.Z.;._ ) &               ",
"              , N { i.p.L.T.T.R.(.(.).).N.;.;.` 5               ",
"              1 P K K c / J.!.!._._.!.K.A.w.w.] k X             ",
"              = n n v <.6.F.!.!.E._.H.>.^ ;.w. .k o             ",
"            = <.z.W.T.Q.!.!.F.).(.G.~.K.k V z l 6 # o           ",
"          - 1.A.%.z.z.Q.7.( 6.Q.!.>.j.Q.A.q.[ l l T 2           ",
"          + P X.e.9.P.y.9 %.n.l.T.^ E T.Y.Y.Y.I.d.| *           ",
"            9 o.e.P.s.4 *.C.C.m.k.g.s h.Y.Y.0.f.d.f +           ",
"            @ m 9.w.7 T #.#.#.*.h.g.! 0 0.Y.0.w.~ O             ",
"              X 5.5 5 I U _ -.-.] ] ] a $ 3.Y.5.+ +             ",
"              + @ @ $ < j C D S H H _ h 1 X x b @               ",
"                      & : 3 w t y y y > O   . .                 ",
"                          & % % # % &                           ",
"                                                                ",
"                                                                ",
"                                                                ",
"                                                                ",
"                                                                "
};
