/* XPM */
static char *_fd8a90435c9447a9cdc32541e433470JJQ9DWiEnv9MlbtR[] = {
/* columns rows colors chars-per-pixel */
"32 32 171 2 ",
"   c None",
".  c #020202",
"X  c #0D080F",
"o  c #0A050B",
"O  c #0E0F10",
"+  c #150B17",
"@  c #1D0E1E",
"#  c #180C17",
"$  c #151617",
"%  c #24111F",
"&  c #261325",
"*  c #2D162A",
"=  c #31172C",
"-  c #361B39",
";  c #3B1D39",
":  c #3C213E",
">  c #4B2007",
",  c #4D2209",
"<  c #5D2B06",
"1  c #5B341B",
"2  c #622F07",
"3  c #683004",
"4  c #723603",
"5  c #653C1A",
"6  c #73471A",
"7  c #774A24",
"8  c #7F5633",
"9  c #3B2341",
"0  c #382D41",
"q  c #3A2646",
"w  c #3E3B4B",
"e  c #412742",
"r  c #412844",
"t  c #442D4A",
"y  c #47324E",
"u  c #49334E",
"i  c #4A3551",
"p  c #4B3A56",
"a  c #4F3E5A",
"s  c #523E59",
"d  c #45494C",
"f  c #424549",
"g  c #4C445C",
"h  c #4F4D5C",
"j  c #484555",
"k  c #54425D",
"l  c #504D5D",
"z  c #4D5359",
"x  c #51555A",
"c  c #63484A",
"v  c #7E5F47",
"b  c #654F59",
"n  c #695F5A",
"m  c #554966",
"M  c #4F5E6B",
"N  c #575764",
"B  c #515C65",
"V  c #625564",
"C  c #635C76",
"Z  c #4E606F",
"A  c #586875",
"S  c #5C6D7C",
"D  c #526373",
"F  c #62656B",
"G  c #60686F",
"H  c #6E6A67",
"J  c #786D6A",
"K  c #606870",
"L  c #69697B",
"P  c #71687E",
"I  c #6F7171",
"U  c #62717E",
"Y  c #6E757B",
"T  c #8D4703",
"R  c #804D1F",
"E  c #8A4D12",
"W  c #AA6C11",
"Q  c #8B5F26",
"!  c #946B2F",
"~  c #A4782F",
"^  c #A37238",
"/  c #C3963D",
"(  c #B48349",
")  c #998267",
"_  c #D5A162",
"`  c #D2B466",
"'  c #5F7181",
"]  c #6E6781",
"[  c #637382",
"{  c #677887",
"}  c #677888",
"|  c #6B7C8B",
" . c #6B7B87",
".. c #797A88",
"X. c #72818E",
"o. c #7F8386",
"O. c #758492",
"+. c #788793",
"@. c #7B8A97",
"#. c #7D8B99",
"$. c #87898D",
"%. c #808E9B",
"&. c #878C98",
"*. c #85939E",
"=. c #8F969C",
"-. c #92999F",
";. c #909498",
":. c #8794A0",
">. c #8996A3",
",. c #8D99A5",
"<. c #959EA5",
"1. c #929EA9",
"2. c #99A1A7",
"3. c #95A1AD",
"4. c #9BA4AD",
"5. c #9BA5B0",
"6. c #9EA9B3",
"7. c #A0A8AF",
"8. c #A0A4A8",
"9. c #B3AFAD",
"0. c #BFB4AB",
"q. c #A4ADB4",
"w. c #ACB1B5",
"e. c #A7B2BB",
"r. c #ABB4BC",
"t. c #B2B4B6",
"y. c #B9B9BC",
"u. c #C0B4AB",
"i. c #ECCFAC",
"p. c #E9D5BD",
"a. c #AFB9C1",
"s. c #B4BCC4",
"d. c #BAC1C6",
"f. c #BCC3CA",
"g. c #C4C5C5",
"h. c #C2C7CB",
"j. c #C3C9CE",
"k. c #C9CACB",
"l. c #D8CDC4",
"z. c #D7CDC5",
"x. c #C4CAD0",
"c. c #C9CED3",
"v. c #CCD1D6",
"b. c #CFD4DA",
"n. c #D0D4D7",
"m. c #D9D8D7",
"M. c #D2D6DA",
"N. c #D6DADE",
"B. c #DBDBDB",
"V. c #E8DFD7",
"C. c #E5DDD7",
"Z. c #DADEE1",
"A. c #DEE1E4",
"S. c #E1E3E5",
"D. c #E3E6E9",
"F. c #E6E9EB",
"G. c #EBECEC",
"H. c #E8E6E5",
"J. c #F2EBE4",
"K. c #F0EEEC",
"L. c #F6F2EE",
"P. c #F8F3EF",
"I. c #EDEFF1",
"U. c #EFF0F1",
"Y. c #F4F4F4",
"T. c #FBF7F2",
"R. c #FFFAF5",
"E. c #FEF8F4",
"W. c #F6F7F8",
"Q. c #F7F8F8",
"!. c #FBFBFB",
/* pixels */
"                                                                ",
"                                                                ",
"                          g.Y.Q.Y.Y.G.h.                        ",
"                        A.Y.Y.U.I.F.S.A.v.F                     ",
"                      g.Y.U.G.D.A.Z.M.v.x.r.                    ",
"                      S.G.A.A.A.Z.c.f.f.f.f.=.                  ",
"                    I S.v.G.A.U.h.I.G.T.c.s.q.                  ",
"                    t.B.G.b.T.R.!.E.v.E.G.r.w.                  ",
"                    g.j.L.b.R.R.R.R.S.B.E.s.q.d                 ",
"                    g.f.A.J.R.R.R.E.E.s.E.h.8.d                 ",
"                  G.k.h.v.E.E.E.E.E.E.G.G.B.<.d                 ",
"                !.x.G.h.d.E.E.E.E.E.T.T.c.G.<.d                 ",
"              W.I.x.G.k.f.T.T.T.E.E.E.P.k.T.<.t.                ",
"            j.Q.A.r.A.k.c.L.P.P.L.P.P.P.H.K.2.Z.d.Z.*.          ",
"            N.f.I.e.s.k.B.J.J.J.J.J.J.J.J.m.4.N.s.F.G.D.K       ",
"    M.    B c.s.b.x.3.w.C.C.V.V.V.V.V.V.V.s.7.A.a.Z.S.G.A.      ",
"    S.M.d 6.1.a.N.F.%.s.F l.l.l.l.l.l.l.y.o.q.F.r.f.N.A.A.e.    ",
"    A.N.#.D.#.:.4.e.{ 1.g j 9.u.u.u.u.&.y =.2.F.,.e.f.f.f.5.    ",
"    j.N.G Q.s.O.[ O.S 5.m g y U $.$.N l L -.` F.} #.1.5.3.+.    ",
"    e.y.x Q.s.5.#.D Z 3.m C C m z N J ~ W ;._ U.1.} O.@.O.[     ",
"    A X.1.D.s.z O.%.%.5.&...] ..v 6 2 4 E ) ( p.Z.f.#.' } }     ",
"  G.A.,.U 8.I  .U { n.s.c.%.+.1 > 1 1 3 R -.^ i.b.r.e.1.>.a.    ",
"    f o.j.3.:.1.>.q.c.!.I.F.| [ > J n < 7 T ^ / M.+.O.>.1.:.    ",
"    . X $ F  .Y h g.c.I.A.v.,.[ > > , < Q ! V i ] s.O.[ } Z     ",
"    . . . . . O d 9.4.f.s.6.| [ , 5 R b m a p q 9 0 >.#.}       ",
"    . . . . . . O $ j.#.#.X.[ H c k m s p y t q - + + .         ",
"          . . . o @ s h.,.>.L t i i i y t r 9 - - + .           ",
"                X - - ; ; ; 9 9 r r r r 9 ; - - &               ",
"                    @ ; ; ; ; ; ; ; ; ; ; ; *                   ",
"                            % = = = & #                         ",
"                                                                ",
"                                                                "
};
