/* XPM */
static char *_acabe9b6c814044a4ceaa6028bbe4f8ynDTwV4aQCgTMqT2[] = {
/* columns rows colors chars-per-pixel */
"32 32 137 2 ",
"   c None",
".  c #3D3B3B",
"X  c #414040",
"o  c #4A4746",
"O  c #4E4C4C",
"+  c #514F4F",
"@  c #4F4F50",
"#  c #504F51",
"$  c #545353",
"%  c #585757",
"&  c #575758",
"*  c #585758",
"=  c #5C5B5C",
"-  c #5F5F60",
";  c #636364",
":  c #676769",
">  c #686768",
",  c #676869",
"<  c #6A6A6C",
"1  c #6E6F71",
"2  c #6F7072",
"3  c #737375",
"4  c #7B7B7B",
"5  c #7F7F80",
"6  c #838383",
"7  c #8B8B8C",
"8  c #8F8F90",
"9  c #929293",
"0  c #9C9C9D",
"q  c #9F9FA0",
"w  c #A1A2A3",
"e  c #ABABAB",
"r  c #B0AFAF",
"t  c gray70",
"y  c #B3B2B2",
"u  c #B1B1B1",
"i  c #B3B3B4",
"p  c #B4B3B4",
"a  c #B5B4B4",
"s  c #B4B4B5",
"d  c #B6B5B5",
"f  c #B5B5B6",
"g  c #B6B6B6",
"h  c #B7B7B7",
"j  c gray72",
"k  c #B9B8B9",
"l  c #B9B9BA",
"z  c gray73",
"x  c #BCBCBC",
"c  c #DBDBDC",
"v  c #DDDEDF",
"b  c #DFE0E1",
"n  c #E0E1E2",
"m  c #E3E3E4",
"M  c #E3E4E5",
"N  c #E4E4E5",
"B  c #E4E5E6",
"V  c #E5E5E6",
"C  c #E5E6E6",
"Z  c #E5E6E7",
"A  c #E3E4E5",
"S  c #E6E7E8",
"D  c #E7E7E8",
"F  c #E7E7E8",
"G  c #E7E8E8",
"H  c #E7E8E9",
"J  c #E7E8E9",
"K  c #E8E8E9",
"L  c #E8E9E9",
"P  c #E8E9EA",
"I  c #E9E9EA",
"U  c #E9EAEA",
"Y  c #E9EAEB",
"T  c #EAEAEB",
"R  c #EAEBEB",
"E  c #EAEBEC",
"W  c #EBEBEC",
"Q  c #EBECEC",
"!  c #EBECED",
"~  c #ECECED",
"^  c #ECEDED",
"/  c #ECEDEE",
"(  c #EDEDEE",
")  c #EDEEEE",
"_  c #EDEEEF",
"`  c #EEEEEE",
"'  c #EEEEEF",
"]  c #EEEFEF",
"[  c #EBECED",
"{  c #EEEFF0",
"}  c #EFEFF0",
"|  c #EFEFF0",
" . c #EFF0F0",
".. c #EFF0F0",
"X. c #F0F0F1",
"o. c #F0F1F1",
"O. c #F1F1F1",
"+. c #F1F1F2",
"@. c #F1F2F2",
"#. c gray95",
"$. c #F2F2F3",
"%. c #F2F3F3",
"&. c #F3F3F3",
"*. c #F3F3F4",
"=. c #F3F4F4",
"-. c #F4F4F4",
";. c #F4F4F5",
":. c #F4F5F5",
">. c gray96",
",. c #F5F5F6",
"<. c #F5F6F6",
"1. c #F6F6F6",
"2. c #F6F6F7",
"3. c #F6F7F7",
"4. c gray97",
"5. c #F3F4F4",
"6. c #F7F7F8",
"7. c #F7F7F8",
"8. c #F7F8F8",
"9. c #F7F8F8",
"0. c #F8F8F8",
"q. c #F8F8F9",
"w. c #F8F9F9",
"e. c #F9F9F9",
"r. c #F9F9FA",
"t. c #F9FAFA",
"y. c gray98",
"u. c #FAFAFB",
"i. c #FAFBFB",
"p. c #FBFBFB",
"a. c #FBFBFC",
"s. c #FBFCFC",
"d. c gray99",
"f. c #FCFCFD",
"g. c #FDFDFD",
"h. c #FEFEFE",
"j. c #FAFAFA",
/* pixels */
"                                                                ",
"                                                                ",
"  e e e e e e e e w e 4 , 5 e e e e e e e e e w = ; e e e e     ",
"  h.h.h.h.s.w.w.4.4.4.9 3 w h.h.h.w.h.w.0.4.4.4.$ < 4.w.h.w.5   ",
"  h.h.w.w.w.w.4.4.$.$.9 3 w d.d.d.w.6.4.4.*.&.$.$ > 4.w.w.4.4   ",
"  p.w.w.w.4.4.;.;.$.$.7 1 w d.w.w.w.4.4.=.$.$...$ , ] 0.4.4.4   ",
"  w.6.4.4.=.$.$.$./ / 8 1 q w.6.q.4.*.$.$.$.] / $ ; / 4.*.$.4   ",
"  w.4.4.$.$.$.{ / ! ! 7 1 0 6.4.4.$.$.{ / / ! R $ ; R $.{ / 4   ",
"  4.*.$...| { ! ! P S 7 < 0 ;.*.$.$. ./ / ! T H @ ; S { ! T 4   ",
"  $.$.{ { { ! ! S S M 7 < 0 *.{ / / ! ! T S V M @ ; M ! S V 3   ",
"  , ; ; ; ; ; ; ; - - ; < , - = = = = = % & % % = ; = $ $ $ +   ",
"  3 2 2 1 1 1 < < < < , , , , ; ; ; ; ; - ; - - - = = = = = $   ",
"  h.h.d.w.= 1 $.h.f.d.f.w.w.4.4.6.! = ; h.h.h.h.d.w.w.3.4.4.4   ",
"  h.w.w.w.& < $.h.f.d.w.w.w.4.4.4.S = - h.p.w.p.w.w.4.4.4.$.4   ",
"  w.w.4.4.$ < { f.w.w.q.q.4.;.$.$.V & - h.p.w.3.w.4.4.$.$.$.4   ",
"  8.4.4.*.$ < / 8.6.q.6.4.&.$.$. .M * = w.w.w.4.4.4.$.$.$.{ 4   ",
"  =.$.$.{ # > ~ 0.4.4.-.-.....` / n $ = 0.4.4.-.-.$.....` / 4   ",
"  &.] ] ! $ , ! 4.-.&.......` Q ! v $ = 4.-.-.$.$...` Q Q R 4   ",
"  ] ! ! V # ; T $.$.....Q / Q U D c $ = -.-.$.../ / Q R T T 3   ",
"  3 < < > $ ; 3 > > > > > > ; ; ; ; $ % > ; ; ; ; - - - = = +   ",
"  ; ; ; ; ; ; ; ; - = = = = = = = % * * % % $ $ $ + + + + + +   ",
"  x x x l l d d d d d 4 = 5 j d d a p p p u u r + $ u p p u <   ",
"  h.h.d.h.w.8.6.3.4.4.7 = 9 h.d.d.p.w.w.4.4.4.-.X + &.d.d.w.5   ",
"  h.h.w.w.w.8.4.4.&.&.6 % 9 d.d.w.p.w.q.4.&.$.$.. + &.p.w.w.4   ",
"  w.w.w.4.4.4.$.$.$. .6 $ 9 d.p.3.4.4.4.-.$.$.] . + ` 0.4.&.4   ",
"  w.4.4.4.4.$.$.$. ./ 6 $ 9 0.0.3.4.$.&.$.$./ ! . o / 4.&.$.4   ",
"  q.4.4.&.$.$./ / ! T 6 $ 8 0.3.=.=.$.$.] / ! T . o R $./ / 4   ",
"  4.;.$.$.$./ / R T H 6 $ 7 -.-.*. .../ / R T H . o D ` / T 4   ",
"  ] / ! T T V V V m n 4 + 7 / / ! T H V V M n n . o b T V n 3   ",
"                                                                ",
"                                                                ",
"                                                                "
};
